<?xml version="1.0" encoding="UTF-8" standalone="no"?>
<!DOCTYPE svg PUBLIC "-//W3C//DTD SVG 1.1//EN" "http://www.w3.org/Graphics/SVG/1.1/DTD/svg11.dtd">
<svg width="100%" height="100%" viewBox="0 0 512 512" version="1.1" xmlns="http://www.w3.org/2000/svg" xmlns:xlink="http://www.w3.org/1999/xlink" xml:space="preserve" xmlns:serif="http://www.serif.com/" style="fill-rule:evenodd;clip-rule:evenodd;stroke-linejoin:round;stroke-miterlimit:2;">
    <g transform="matrix(1.91615,0,0,1.91615,-702.075,-791.841)">
        <g transform="matrix(0.497293,0,0,0.497293,228.177,209.785)">
            <path d="M284.42,832.014C353.956,901.549 448.267,940.614 546.605,940.614C644.944,940.614 739.255,901.549 808.791,832.014L743.244,766.467C691.092,818.619 620.359,847.918 546.605,847.918C472.851,847.918 402.118,818.619 349.966,766.467L284.42,832.014Z" style="fill:rgb(1,105,255);"/>
        </g>
        <g transform="matrix(1,0,0,1,151.566,0)">
            <path d="M433.218,416.148L263.65,416.148L263.65,521.952L348.775,603.655L433.218,521.952L433.218,416.148Z" style="fill:rgb(7,27,75);"/>
        </g>
    </g>
</svg>
