<?xml version="1.0" encoding="UTF-8" standalone="no"?>
<!DOCTYPE svg PUBLIC "-//W3C//DTD SVG 1.1//EN" "http://www.w3.org/Graphics/SVG/1.1/DTD/svg11.dtd">
<svg width="100%" height="100%" viewBox="0 0 1104 262" version="1.1" xmlns="http://www.w3.org/2000/svg" xmlns:xlink="http://www.w3.org/1999/xlink" xml:space="preserve" xmlns:serif="http://www.serif.com/" style="fill-rule:evenodd;clip-rule:evenodd;stroke-linejoin:round;stroke-miterlimit:2;">
    <g transform="matrix(1,0,0,1,-80.827,-416.148)">
        <g transform="matrix(1,0,0,1,-288.79,0)">
            <g transform="matrix(0.497293,0,0,0.497293,228.177,209.785)">
                <path d="M284.42,832.014C353.956,901.549 448.267,940.614 546.605,940.614C644.944,940.614 739.255,901.549 808.791,832.014L743.244,766.467C691.092,818.619 620.359,847.918 546.605,847.918C472.851,847.918 402.118,818.619 349.966,766.467L284.42,832.014Z" style="fill:rgb(1,105,255);"/>
            </g>
            <g transform="matrix(1,0,0,1,151.566,0)">
                <path d="M433.218,416.148L263.65,416.148L263.65,521.952L348.775,603.655L433.218,521.952L433.218,416.148Z" style="fill:rgb(7,27,75);"/>
            </g>
        </g>
        <g transform="matrix(4.15254,0,0,4.15254,-1327.74,-1467.24)">
            <path d="M447.722,502.725L440.022,482.025L440.022,502.725L431.472,502.725L431.472,466.825L442.622,466.825L451.672,491.175L460.672,466.825L471.822,466.825L471.822,502.725L463.272,502.725L463.272,481.775L455.522,502.725L447.722,502.725Z" style="fill:rgb(0,10,35);fill-rule:nonzero;"/>
            <g transform="matrix(1,0,0,1,-0.958386,0)">
                <path d="M493.872,502.725L493.872,500.125C492.939,501.192 491.855,501.975 490.622,502.475C489.389,502.975 487.905,503.225 486.172,503.225C483.372,503.225 481.114,502.45 479.397,500.9C477.68,499.35 476.822,497.308 476.822,494.775C476.822,492.142 477.855,490.133 479.922,488.75C481.989,487.367 484.939,486.675 488.772,486.675C489.505,486.675 490.205,486.7 490.872,486.75C491.539,486.8 492.155,486.875 492.722,486.975L492.722,485.675C492.722,484.508 492.397,483.608 491.747,482.975C491.097,482.342 490.172,482.025 488.972,482.025C487.805,482.025 486.88,482.342 486.197,482.975C485.514,483.608 485.089,484.508 484.922,485.675L477.222,485.675C477.389,483.575 477.989,481.75 479.022,480.2C480.055,478.65 481.43,477.45 483.147,476.6C484.864,475.75 486.822,475.325 489.022,475.325C492.722,475.325 495.605,476.275 497.672,478.175C499.739,480.075 500.772,482.725 500.772,486.125L500.772,502.725L493.872,502.725ZM484.872,494.525C484.872,495.392 485.164,496.075 485.747,496.575C486.33,497.075 487.139,497.325 488.172,497.325C489.605,497.325 490.722,497.008 491.522,496.375C492.322,495.742 492.722,494.875 492.722,493.775L492.722,492.075C492.089,491.942 491.505,491.85 490.972,491.8C490.439,491.75 489.889,491.725 489.322,491.725C487.889,491.725 486.789,491.958 486.022,492.425C485.255,492.892 484.872,493.592 484.872,494.525Z" style="fill:rgb(0,10,35);fill-rule:nonzero;"/>
            </g>
            <g transform="matrix(1,0,0,1,-81.428,0)">
                <path d="M595.022,491.679L595.022,502.725L586.472,502.725L586.472,475.825L594.322,475.825L594.322,479.924C595.155,478.684 597.868,477.365 598.797,476.925C600.106,476.304 602.789,475.625 604.922,475.625L604.922,483.968C601.759,484.167 599.245,485.271 597.613,486.616C596.301,487.695 595.022,489.981 595.022,491.679Z" style="fill:rgb(0,10,35);fill-rule:nonzero;"/>
            </g>
            <path d="M536.422,502.725L527.872,502.725L527.872,466.825L536.422,466.825L536.422,486.725L544.772,475.825L554.622,475.825L544.672,488.575L556.022,502.725L545.122,502.725L536.422,490.475L536.422,502.725Z" style="fill:rgb(0,10,35);fill-rule:nonzero;"/>
            <path d="M569.072,503.175C566.305,503.175 563.88,502.592 561.797,501.425C559.714,500.258 558.097,498.625 556.947,496.525C555.797,494.425 555.222,491.992 555.222,489.225C555.222,486.525 555.814,484.133 556.997,482.05C558.18,479.967 559.814,478.325 561.897,477.125C563.98,475.925 566.355,475.325 569.022,475.325C571.255,475.325 573.272,475.742 575.072,476.575C576.872,477.408 578.38,478.567 579.597,480.05C580.814,481.533 581.672,483.25 582.172,485.2C582.672,487.15 582.722,489.225 582.322,491.425L560.372,491.425L560.372,486.075L573.172,486.075C573.139,484.708 572.722,483.625 571.922,482.825C571.122,482.025 570.089,481.625 568.822,481.625C567.722,481.625 566.814,481.9 566.097,482.45C565.38,483 564.839,483.842 564.472,484.975C564.105,486.108 563.922,487.542 563.922,489.275C563.922,490.875 564.105,492.217 564.472,493.3C564.839,494.383 565.389,495.192 566.122,495.725C566.855,496.258 567.772,496.525 568.872,496.525C570.072,496.525 571.072,496.275 571.872,495.775C572.672,495.275 573.255,494.542 573.622,493.575L582.172,493.575C581.339,496.642 579.789,499.008 577.522,500.675C575.255,502.342 572.439,503.175 569.072,503.175Z" style="fill:rgb(0,10,35);fill-rule:nonzero;"/>
            <path d="M595.022,491.679L595.022,502.725L586.472,502.725L586.472,475.825L594.322,475.825L594.322,479.924C595.155,478.684 597.868,477.365 598.797,476.925C600.106,476.304 602.789,475.625 604.922,475.625L604.922,483.968C601.759,484.167 599.245,485.271 597.613,486.616C596.301,487.695 595.022,489.981 595.022,491.679Z" style="fill:rgb(0,10,35);fill-rule:nonzero;"/>
        </g>
    </g>
</svg>
