<?xml version="1.0" standalone="no"?>
<!DOCTYPE svg PUBLIC "-//W3C//DTD SVG 20010904//EN"
 "http://www.w3.org/TR/2001/REC-SVG-20010904/DTD/svg10.dtd">
<svg version="1.0" xmlns="http://www.w3.org/2000/svg"
 width="700.000000pt" height="700.000000pt" viewBox="0 0 700.000000 700.000000"
 preserveAspectRatio="xMidYMid meet">
<metadata>
Created by potrace 1.14, written by Peter Selinger 2001-2017
</metadata>
<g transform="translate(0.000000,700.000000) scale(0.100000,-0.100000)"
fill="#000000" stroke="none">
<path d="M1283 6917 c-4 -6 -7 -2286 -3 -2707 0 -65 -19 -42 230 -280 101 -96
215 -206 254 -243 39 -38 141 -136 226 -217 217 -207 258 -247 494 -474 115
-111 230 -221 256 -246 26 -25 138 -133 250 -240 112 -107 226 -217 254 -244
28 -26 97 -93 153 -147 57 -55 106 -99 110 -99 10 0 73 59 402 379 140 135
275 266 301 291 26 25 152 147 281 272 129 124 280 271 336 325 56 54 202 195
325 314 123 119 255 247 293 284 39 36 116 112 173 167 l103 101 0 1361 c0
748 0 1372 -1 1386 l0 25 -2216 0 c-1219 0 -2218 -4 -2221 -8z"/>
<path d="M510 1915 l-425 -425 65 -63 c66 -63 147 -137 210 -192 33 -28 230
-183 295 -232 308 -229 758 -472 1138 -615 190 -71 537 -175 642 -194 17 -3
84 -16 150 -29 116 -23 160 -30 241 -40 22 -3 50 -7 64 -10 22 -4 61 -8 195
-21 297 -27 802 -17 1025 21 14 3 48 7 75 11 28 3 59 8 70 10 10 2 37 6 60 10
128 18 398 81 555 129 47 14 92 27 100 29 37 10 275 98 376 139 142 58 393
180 508 246 49 28 91 51 93 51 4 0 48 28 203 129 145 94 346 244 475 355 75
64 108 93 219 198 l71 67 -427 427 -427 428 -73 -70 c-86 -81 -215 -189 -313
-263 -38 -29 -77 -58 -85 -64 -39 -31 -246 -160 -339 -211 -312 -173 -696
-315 -1015 -377 -103 -20 -213 -38 -271 -45 -33 -3 -69 -8 -80 -10 -46 -9
-241 -18 -400 -17 -222 0 -408 15 -590 48 -44 8 -91 16 -105 18 -130 23 -376
94 -563 163 -432 161 -860 425 -1196 740 -46 44 -86 80 -90 82 -3 1 -197 -189
-431 -423z"/>
</g>
</svg>
