<?xml version="1.0" encoding="UTF-8" standalone="no"?>
<!DOCTYPE svg PUBLIC "-//W3C//DTD SVG 1.1//EN" "http://www.w3.org/Graphics/SVG/1.1/DTD/svg11.dtd">
<svg width="100%" height="100%" viewBox="0 0 95 111" version="1.1" xmlns="http://www.w3.org/2000/svg" xmlns:xlink="http://www.w3.org/1999/xlink" xml:space="preserve" xmlns:serif="http://www.serif.com/" style="fill-rule:evenodd;clip-rule:evenodd;stroke-linejoin:round;stroke-miterlimit:2;">
    <g id="Curve" transform="matrix(1.19359,-1.19359,1.19359,1.19359,-1432.83,390.516)">
        <path d="M791.822,476.245C791.822,468.817 788.87,461.692 783.618,456.439C778.365,451.186 771.24,448.235 763.812,448.235L763.809,448.235C756.38,448.235 749.256,451.186 744.003,456.439C738.75,461.692 735.799,468.817 735.799,476.245L735.799,499.206C735.799,501.996 738.061,504.258 740.851,504.258L763.812,504.258C771.24,504.258 778.365,501.307 783.618,496.054C788.87,490.801 791.822,483.677 791.822,476.248L791.822,476.245Z" style="fill:rgb(50,115,223);"/>
    </g>
    <g id="Pen" transform="matrix(1.03326,-1.03326,1.03326,1.03326,-841.191,564.892)">
        <path d="M687.926,176.583L689.728,178.386L679.397,188.717C679.397,188.717 679.815,189.135 680.275,189.595C680.591,189.911 681.019,190.088 681.466,190.088C681.913,190.088 682.342,189.911 682.658,189.595C685.037,187.216 690.352,181.9 692.732,179.521C693.048,179.205 693.225,178.776 693.225,178.329C693.225,177.882 693.048,177.454 692.732,177.138C692.272,176.678 691.854,176.26 691.854,176.26L691.85,176.264L690.047,174.462L690.05,174.458L683.858,168.266L665.497,186.627C665.497,186.627 663.483,192.092 662.453,194.884C662.347,195.172 662.419,195.494 662.636,195.71C662.853,195.926 663.176,195.996 663.463,195.889C666.247,194.85 671.689,192.819 671.689,192.819L687.926,176.583ZM686.14,165.984L692.332,172.177L693.106,171.403C693.794,170.715 694.18,169.783 694.18,168.81C694.18,167.838 693.794,166.905 693.106,166.217C692.773,165.884 692.432,165.543 692.099,165.21C691.411,164.523 690.478,164.136 689.506,164.136C688.534,164.136 687.601,164.523 686.913,165.21L686.14,165.984Z" style="fill:white;"/>
    </g>
</svg>
