<?xml version="1.0" encoding="UTF-8" standalone="no"?>
<!DOCTYPE svg PUBLIC "-//W3C//DTD SVG 1.1//EN" "http://www.w3.org/Graphics/SVG/1.1/DTD/svg11.dtd">
<svg width="100%" height="100%" viewBox="0 0 42 24" version="1.1" xmlns="http://www.w3.org/2000/svg" xmlns:xlink="http://www.w3.org/1999/xlink" xml:space="preserve" xmlns:serif="http://www.serif.com/" style="fill-rule:evenodd;clip-rule:evenodd;stroke-linejoin:round;stroke-miterlimit:2;">
    <g id="Nudge" transform="matrix(1.46487,2.46519e-32,0,1.46487,-1141.43,-471.033)">
        <circle cx="799.718" cy="323.413" r="1.86" style="fill:rgb(218,218,218);"/>
        <g transform="matrix(1,0,0,1,6.09672,0)">
            <circle cx="799.718" cy="323.413" r="1.86" style="fill:rgb(218,218,218);"/>
        </g>
        <g transform="matrix(1,0,0,1,0,6.01448)">
            <circle cx="799.718" cy="323.413" r="1.86" style="fill:rgb(218,218,218);"/>
        </g>
        <g transform="matrix(1,0,0,1,6.09672,6.01448)">
            <circle cx="799.718" cy="323.413" r="1.86" style="fill:rgb(218,218,218);"/>
        </g>
        <g transform="matrix(1,0,0,1,-12.6921,0)">
            <circle cx="799.718" cy="323.413" r="1.86" style="fill:rgb(218,218,218);"/>
        </g>
        <g transform="matrix(1,0,0,1,-6.59542,0)">
            <circle cx="799.718" cy="323.413" r="1.86" style="fill:rgb(218,218,218);"/>
        </g>
        <g transform="matrix(1,0,0,1,-12.6921,6.01448)">
            <circle cx="799.718" cy="323.413" r="1.86" style="fill:rgb(218,218,218);"/>
        </g>
        <g transform="matrix(1,0,0,1,-6.59542,6.01448)">
            <circle cx="799.718" cy="323.413" r="1.86" style="fill:rgb(218,218,218);"/>
        </g>
        <g transform="matrix(1,0,0,1,0,12.0359)">
            <circle cx="799.718" cy="323.413" r="1.86" style="fill:rgb(218,218,218);"/>
        </g>
        <g transform="matrix(1,0,0,1,6.09672,12.0359)">
            <circle cx="799.718" cy="323.413" r="1.86" style="fill:rgb(218,218,218);"/>
        </g>
        <g transform="matrix(1,0,0,1,-12.6921,12.0359)">
            <circle cx="799.718" cy="323.413" r="1.86" style="fill:rgb(218,218,218);"/>
        </g>
        <g transform="matrix(1,0,0,1,-6.59542,12.0359)">
            <circle cx="799.718" cy="323.413" r="1.86" style="fill:rgb(218,218,218);"/>
        </g>
        <g transform="matrix(1,0,0,1,-18.6549,0)">
            <circle cx="799.718" cy="323.413" r="1.86" style="fill:rgb(218,218,218);"/>
        </g>
        <g transform="matrix(1,0,0,1,-18.6549,6.01448)">
            <circle cx="799.718" cy="323.413" r="1.86" style="fill:rgb(218,218,218);"/>
        </g>
        <g transform="matrix(1,0,0,1,-18.6549,12.0359)">
            <circle cx="799.718" cy="323.413" r="1.86" style="fill:rgb(218,218,218);"/>
        </g>
    </g>
</svg>
