<?xml version="1.0" encoding="UTF-8" standalone="no"?>
<!DOCTYPE svg PUBLIC "-//W3C//DTD SVG 1.1//EN" "http://www.w3.org/Graphics/SVG/1.1/DTD/svg11.dtd">
<svg width="100%" height="100%" viewBox="0 0 39 39" version="1.1" xmlns="http://www.w3.org/2000/svg" xmlns:xlink="http://www.w3.org/1999/xlink" xml:space="preserve" xmlns:serif="http://www.serif.com/" style="fill-rule:evenodd;clip-rule:evenodd;stroke-linejoin:round;stroke-miterlimit:2;">
    <g transform="matrix(0.976767,-8.23921e-33,8.23921e-33,0.976767,-743.646,-384.945)">
        <path d="M800.464,401.31C800.464,397.331 797.234,394.101 793.256,394.101L768.543,394.101C764.565,394.101 761.335,397.331 761.335,401.31L761.335,426.023C761.335,430.001 764.565,433.231 768.543,433.231L793.256,433.231C797.234,433.231 800.464,430.001 800.464,426.023L800.464,401.31ZM797.464,401.31C797.464,398.987 795.578,397.101 793.256,397.101L768.543,397.101C766.22,397.101 764.335,398.987 764.335,401.31L764.335,426.023C764.335,428.345 766.22,430.231 768.543,430.231L793.256,430.231C795.578,430.231 797.464,428.345 797.464,426.023L797.464,401.31ZM782.773,426.545L778.944,426.545L778.944,405L770.789,405L770.789,401.55L790.928,401.55L790.928,405L782.773,405L782.773,426.545Z" style="fill:white;"/>
    </g>
</svg>
